<?xml version="1.0" encoding="UTF-8" standalone="no"?>
<!DOCTYPE svg PUBLIC "-//W3C//DTD SVG 1.1//EN"
 "http://www.w3.org/Graphics/SVG/1.1/DTD/svg11.dtd">
<!-- Generated by graphviz version 5.0.1 (0)
 -->
<!-- Title: backend Pages: 1 -->
<svg width="349pt" height="188pt"
 viewBox="0.00 0.00 349.16 188.00" xmlns="http://www.w3.org/2000/svg" xmlns:xlink="http://www.w3.org/1999/xlink">
<g id="graph0" class="graph" transform="scale(1 1) rotate(0) translate(4 184)">
<title>backend</title>
<polygon fill="white" stroke="none" points="-4,4 -4,-184 345.16,-184 345.16,4 -4,4"/>
<!-- Aggregator -->
<g id="node1" class="node">
<title>Aggregator</title>
<text text-anchor="middle" x="39" y="-158.3" font-family="Times,serif" font-size="14.00">Aggregator</text>
</g>
<!-- Reflector -->
<g id="node4" class="node">
<title>Reflector</title>
<text text-anchor="middle" x="39" y="-86.3" font-family="Times,serif" font-size="14.00">Reflector</text>
</g>
<!-- Aggregator&#45;&#45;Reflector -->
<!-- A1 -->
<g id="node2" class="node">
<title>A1</title>
<ellipse fill="none" stroke="black" cx="174" cy="-162" rx="27" ry="18"/>
<text text-anchor="middle" x="174" y="-158.3" font-family="Times,serif" font-size="14.00">A1</text>
</g>
<!-- R1 -->
<g id="node5" class="node">
<title>R1</title>
<ellipse fill="none" stroke="black" cx="156" cy="-90" rx="27" ry="18"/>
<text text-anchor="middle" x="156" y="-86.3" font-family="Times,serif" font-size="14.00">R1</text>
</g>
<!-- A1&#45;&#45;R1 -->
<g id="edge2" class="edge">
<title>A1&#45;&#45;R1</title>
<path fill="none" stroke="black" d="M169.64,-144.05C166.81,-133.05 163.14,-118.76 160.32,-107.79"/>
</g>
<!-- R2 -->
<g id="node6" class="node">
<title>R2</title>
<ellipse fill="none" stroke="black" cx="228" cy="-90" rx="27" ry="18"/>
<text text-anchor="middle" x="228" y="-86.3" font-family="Times,serif" font-size="14.00">R2</text>
</g>
<!-- A1&#45;&#45;R2 -->
<g id="edge3" class="edge">
<title>A1&#45;&#45;R2</title>
<path fill="none" stroke="black" d="M185.98,-145.46C194.93,-133.86 207.11,-118.08 216.05,-106.49"/>
</g>
<!-- R3 -->
<g id="node7" class="node">
<title>R3</title>
<ellipse fill="none" stroke="black" cx="300" cy="-90" rx="27" ry="18"/>
<text text-anchor="middle" x="300" y="-86.3" font-family="Times,serif" font-size="14.00">R3</text>
</g>
<!-- A1&#45;&#45;R3 -->
<g id="edge4" class="edge">
<title>A1&#45;&#45;R3</title>
<path fill="none" stroke="black" d="M194.24,-149.75C217.76,-136.69 256.31,-115.27 279.81,-102.22"/>
</g>
<!-- DB1 -->
<g id="node9" class="node">
<title>DB1</title>
<ellipse fill="none" stroke="black" cx="191" cy="-18" rx="27.1" ry="18"/>
<text text-anchor="middle" x="191" y="-14.3" font-family="Times,serif" font-size="14.00">DB1</text>
</g>
<!-- A1&#45;&#45;DB1 -->
<g id="edge15" class="edge">
<title>A1&#45;&#45;DB1</title>
<path fill="none" stroke="black" d="M155.44,-148.86C142.82,-139.42 127.17,-125.08 120,-108 113.81,-93.25 112.83,-86.3 120,-72 130.13,-51.79 152.04,-37.31 168.86,-28.65"/>
</g>
<!-- A2 -->
<g id="node3" class="node">
<title>A2</title>
<ellipse fill="none" stroke="black" cx="282" cy="-162" rx="27" ry="18"/>
<text text-anchor="middle" x="282" y="-158.3" font-family="Times,serif" font-size="14.00">A2</text>
</g>
<!-- A2&#45;&#45;R1 -->
<g id="edge5" class="edge">
<title>A2&#45;&#45;R1</title>
<path fill="none" stroke="black" d="M261.76,-149.75C238.24,-136.69 199.69,-115.27 176.19,-102.22"/>
</g>
<!-- A2&#45;&#45;R2 -->
<g id="edge6" class="edge">
<title>A2&#45;&#45;R2</title>
<path fill="none" stroke="black" d="M270.02,-145.46C261.07,-133.86 248.89,-118.08 239.95,-106.49"/>
</g>
<!-- A2&#45;&#45;R3 -->
<g id="edge7" class="edge">
<title>A2&#45;&#45;R3</title>
<path fill="none" stroke="black" d="M286.36,-144.05C289.19,-133.05 292.86,-118.76 295.68,-107.79"/>
</g>
<!-- DB2 -->
<g id="node10" class="node">
<title>DB2</title>
<ellipse fill="none" stroke="black" cx="264" cy="-18" rx="27.1" ry="18"/>
<text text-anchor="middle" x="264" y="-14.3" font-family="Times,serif" font-size="14.00">DB2</text>
</g>
<!-- A2&#45;&#45;DB2 -->
<g id="edge16" class="edge">
<title>A2&#45;&#45;DB2</title>
<path fill="none" stroke="black" d="M300.56,-148.86C313.18,-139.42 328.83,-125.08 336,-108 342.19,-93.25 343.22,-86.28 336,-72 325.7,-51.64 303.49,-37.19 286.44,-28.57"/>
</g>
<!-- MongoDB -->
<g id="node8" class="node">
<title>MongoDB</title>
<text text-anchor="middle" x="39" y="-14.3" font-family="Times,serif" font-size="14.00">MongoDB</text>
</g>
<!-- Reflector&#45;&#45;MongoDB -->
<!-- R1&#45;&#45;DB1 -->
<g id="edge9" class="edge">
<title>R1&#45;&#45;DB1</title>
<path fill="none" stroke="black" d="M164.12,-72.76C169.69,-61.62 177.07,-46.87 182.68,-35.63"/>
</g>
<!-- R1&#45;&#45;DB2 -->
<g id="edge10" class="edge">
<title>R1&#45;&#45;DB2</title>
<path fill="none" stroke="black" d="M174.81,-76.81C194.51,-64.04 225.28,-44.09 245.04,-31.29"/>
</g>
<!-- R2&#45;&#45;DB1 -->
<g id="edge11" class="edge">
<title>R2&#45;&#45;DB1</title>
<path fill="none" stroke="black" d="M219.42,-72.76C213.44,-61.46 205.5,-46.44 199.54,-35.15"/>
</g>
<!-- R2&#45;&#45;DB2 -->
<g id="edge12" class="edge">
<title>R2&#45;&#45;DB2</title>
<path fill="none" stroke="black" d="M236.35,-72.76C242.17,-61.46 249.89,-46.44 255.7,-35.15"/>
</g>
<!-- R3&#45;&#45;DB1 -->
<g id="edge13" class="edge">
<title>R3&#45;&#45;DB1</title>
<path fill="none" stroke="black" d="M281.01,-76.81C261.13,-64.04 230.07,-44.09 210.13,-31.29"/>
</g>
<!-- R3&#45;&#45;DB2 -->
<g id="edge14" class="edge">
<title>R3&#45;&#45;DB2</title>
<path fill="none" stroke="black" d="M291.65,-72.76C285.83,-61.46 278.11,-46.44 272.3,-35.15"/>
</g>
<!-- DB1&#45;&#45;DB2 -->
<g id="edge17" class="edge">
<title>DB1&#45;&#45;DB2</title>
<path fill="none" stroke="black" d="M218.38,-18C224.43,-18 230.49,-18 236.55,-18"/>
</g>
</g>
</svg>
